<svg width="20" height="20" viewBox="0 0 20 20" fill="none" xmlns="http://www.w3.org/2000/svg">
<path fill-rule="evenodd" clip-rule="evenodd" d="M10 17C13.866 17 17 13.866 17 10C17 6.13401 13.866 3 10 3C6.13401 3 3 6.13401 3 10C3 13.866 6.13401 17 10 17Z" fill="#181818"/>
<path d="M11.909 7.06574C12.2214 6.75332 12.7279 6.75332 13.0404 7.06574C13.3287 7.35413 13.3509 7.80792 13.1069 8.12175L13.0404 8.19711L8.09061 13.1469C7.77819 13.4593 7.27166 13.4593 6.95924 13.1469C6.67085 12.8585 6.64867 12.4047 6.89269 12.0909L6.95924 12.0155L11.909 7.06574Z" fill="white"/>
<path d="M6.95918 8.19709C6.64676 7.88467 6.64676 7.37814 6.95918 7.06572C7.24756 6.77733 7.70135 6.75515 8.01518 6.99917L8.09055 7.06572L13.0403 12.0155C13.3527 12.3279 13.3527 12.8344 13.0403 13.1468C12.7519 13.4352 12.2981 13.4574 11.9843 13.2134L11.9089 13.1468L6.95918 8.19709Z" fill="white"/>
</svg>
