<svg width="16" height="17" viewBox="0 0 16 17" fill="none" xmlns="http://www.w3.org/2000/svg">
<path fill-rule="evenodd" clip-rule="evenodd" d="M6.27613 3.8306C7.04943 2.51599 8.95057 2.51599 9.72387 3.8306L14.227 11.486C15.0113 12.8193 14.05 14.5 12.5032 14.5H3.49683C1.95 14.5 0.98869 12.8193 1.77296 11.486L6.27613 3.8306Z" fill="#FE3D04"/>
<path fill-rule="evenodd" clip-rule="evenodd" d="M8.87495 5.89467C8.82718 5.47033 8.45373 5.14001 8.00012 5.14001C7.51411 5.14001 7.12012 5.5192 7.12012 5.98696V9.98937L7.12528 10.0817C7.17306 10.506 7.54651 10.8363 8.00012 10.8363C8.48613 10.8363 8.88012 10.4571 8.88012 9.98937V5.98696L8.87495 5.89467ZM8.87495 12.4841C8.82718 12.0432 8.45373 11.7 8.00012 11.7C7.51411 11.7 7.12012 12.094 7.12012 12.58L7.12528 12.6759C7.17306 13.1168 7.54651 13.46 8.00012 13.46C8.48613 13.46 8.88012 13.066 8.88012 12.58L8.87495 12.4841Z" fill="white"/>
</svg>
