<svg width="28" height="28" viewBox="0 0 28 28" fill="none" xmlns="http://www.w3.org/2000/svg">
<path d="M23.278 13.4426L21.072 6.23425C21.015 6.04764 20.8424 5.92 20.6472 5.92H7.48061C7.28547 5.92 7.11282 6.04764 7.05579 6.23425L4.84985 13.4426C4.81687 13.5512 4.7998 13.6645 4.7998 13.7781V22.29C4.7998 22.6814 5.11716 22.9984 5.50822 22.9984H22.6192C23.0107 22.9984 23.3276 22.6811 23.3276 22.29V13.7781C23.328 13.6645 23.3109 13.5512 23.278 13.4426ZM20.6678 13.6067H16.5228C16.2761 13.6067 16.0596 13.7754 16.0037 14.016C15.7996 14.899 15.0086 15.5569 14.0639 15.5569C13.1192 15.5569 12.3282 14.899 12.1241 14.016C12.0686 13.7754 11.8518 13.6067 11.605 13.6067H7.46005C7.20826 13.6067 7.02747 13.3638 7.10002 13.1225L8.66273 7.92731C8.71937 7.73953 8.89201 7.61112 9.08793 7.61112H19.0395C19.2354 7.61112 19.4085 7.73953 19.4647 7.92731L21.0274 13.1225C21.1003 13.3638 20.9199 13.6067 20.6678 13.6067Z" fill="#181818"/>
<path d="M16.6372 9.56682H11.4913C10.9159 9.56682 10.4492 10.0335 10.4492 10.6089C10.4492 11.1842 10.9155 11.6509 11.4913 11.6509H16.6372C17.2125 11.6509 17.6793 11.1842 17.6793 10.6089C17.6793 10.0331 17.2125 9.56682 16.6372 9.56682Z" fill="#181818"/>
</svg>
